<?xml version="1.0" encoding="UTF-8" standalone="no"?>
<svg
   xmlns:dc="http://purl.org/dc/elements/1.1/"
   xmlns:cc="http://creativecommons.org/ns#"
   xmlns:rdf="http://www.w3.org/1999/02/22-rdf-syntax-ns#"
   xmlns:svg="http://www.w3.org/2000/svg"
   xmlns="http://www.w3.org/2000/svg"
   xmlns:sodipodi="http://sodipodi.sourceforge.net/DTD/sodipodi-0.dtd"
   xmlns:inkscape="http://www.inkscape.org/namespaces/inkscape"
   width="24"
   height="24"
   viewBox="0 0 6.3499998 6.3499998"
   version="1.1"
   id="svg8"
   inkscape:version="1.0.2-2 (e86c870879, 2021-01-15)"
   sodipodi:docname="outlook.svg">
  <defs
     id="defs2" />
  <sodipodi:namedview
     id="base"
     pagecolor="#ffffff"
     bordercolor="#666666"
     borderopacity="1.0"
     inkscape:pageopacity="0.0"
     inkscape:pageshadow="2"
     inkscape:zoom="7.919596"
     inkscape:cx="-16.134394"
     inkscape:cy="17.176475"
     inkscape:document-units="mm"
     inkscape:current-layer="layer1"
     inkscape:document-rotation="0"
     showgrid="false"
     units="px"
     inkscape:window-width="1920"
     inkscape:window-height="1027"
     inkscape:window-x="-8"
     inkscape:window-y="-8"
     inkscape:window-maximized="1"
     inkscape:lockguides="false"
     showguides="false" />
  <metadata
     id="metadata5">
    <rdf:RDF>
      <cc:Work
         rdf:about="">
        <dc:format>image/svg+xml</dc:format>
        <dc:type
           rdf:resource="http://purl.org/dc/dcmitype/StillImage" />
        <dc:title />
      </cc:Work>
    </rdf:RDF>
  </metadata>
  <g
     inkscape:label="Layer 1"
     inkscape:groupmode="layer"
     id="layer1">
    <path
       style="fill:none;stroke:#ffffff;stroke-width:0.41;stroke-miterlimit:4;stroke-dasharray:none;stroke-opacity:1"
       d="M 2.0655674,5.7296403 C 1.9699909,5.6994286 1.9095782,5.6506389 1.8642631,5.5670666 L 1.8291794,5.5023625 1.826091,5.0684811 1.8230025,4.6345998 1.2967823,4.6316768 C 0.78004427,4.628809 0.76982117,4.6283567 0.72945095,4.6065699 0.68134616,4.5806126 0.64181512,4.5403514 0.61499944,4.4900039 0.59662648,4.4555082 0.59584003,4.4057312 0.59584003,3.2772283 V 2.1004241 l 0.0221839,-0.041111 c 0.025965,-0.048105 0.0662263,-0.087636 0.11657371,-0.1144519 0.0338329,-0.01802 0.0746015,-0.019329 0.68552536,-0.022023 l 0.6495531,-0.00287 0.00309,-0.4339419 0.00309,-0.4339418 0.027695,-0.0524926 c 0.041027,-0.0777627 0.071996,-0.1097756 0.1439298,-0.14877929 l 0.064764,-0.0351157 h 1.5262473 1.5262473 l 0.064704,0.0350837 c 0.070344,0.0381423 0.1131348,0.0847217 0.1487758,0.16194565 l 0.022909,0.049637 0.00277,1.0033767 0.00277,1.0033766 0.1119427,0.074017 c 0.072025,0.047623 0.1159993,0.083811 0.1233186,0.101482 0.00814,0.019641 0.010589,0.3436705 0.00863,1.1374636 l -0.00275,1.1099981 -0.026926,0.057416 c -0.034244,0.072987 -0.08936,0.1281029 -0.1623425,0.1623284 l -0.057424,0.026929 -1.7472191,0.00194 C 2.4696976,5.7422249 2.098137,5.7399342 2.0655676,5.7296384 Z M 5.6151615,5.5496292 c 0.01903,-0.013573 0.04321,-0.043635 0.053732,-0.066805 0.0182,-0.040076 0.019143,-0.087368 0.019358,-0.9707951 1.798e-4,-0.7388879 -0.0024,-0.92762 -0.012622,-0.9235418 -0.00707,0.00282 -0.4105966,0.2301722 -0.8967346,0.505229 C 4.0822557,4.4878748 3.889411,4.592753 3.8685853,4.5887862 3.8540531,4.5860176 3.7234471,4.5094715 3.5783507,4.4186839 3.4332544,4.3278957 3.3127142,4.2536147 3.3104837,4.2536147 c -0.00223,0 -0.00587,0.045236 -0.0081,0.1005246 -0.00349,0.086869 -0.00788,0.1070666 -0.032258,0.1486794 -0.031891,0.054425 -0.081423,0.096139 -0.1382228,0.1164089 -0.030334,0.010821 -0.1564396,0.013857 -0.5909921,0.014212 l -0.5524267,4.518e-4 v 0.4053024 c 0,0.4204324 0.00191,0.4413685 0.044366,0.4876036 0.050301,0.054773 -0.047071,0.052107 1.8159095,0.049724 l 1.7318021,-0.00222 z M 3.1095505,4.4394049 3.1395934,4.409362 V 3.2772275 2.1450927 L 3.1095505,2.1150499 3.0795077,2.085007 H 1.9473729 0.81523816 L 0.78519526,2.11505 0.75515236,2.145093 v 1.1321348 1.1321348 l 0.0300429,0.030043 0.0300429,0.030043 H 1.9473729 3.0795077 Z M 1.7543109,4.0382357 C 1.4283711,3.9500285 1.2281999,3.6604855 1.2281999,3.2772275 c 0,-0.2622346 0.096042,-0.4890879 0.2669518,-0.6305453 0.066749,-0.055246 0.1925861,-0.1154437 0.2836974,-0.135714 0.1127455,-0.025084 0.2878095,-0.016445 0.3997736,0.019728 0.3046809,0.098432 0.4879236,0.3787971 0.4879236,0.7465323 0,0.3676998 -0.1828904,0.6475818 -0.4879236,0.7466818 -0.1149773,0.037354 -0.3143467,0.044085 -0.4243118,0.014325 z M 2.0903052,3.8780676 C 2.3466588,3.8176406 2.5023721,3.5905931 2.5023721,3.2772275 2.5023721,2.8988365 2.284217,2.6609548 1.9370953,2.6608359 1.7854935,2.6607845 1.6656218,2.7073019 1.5670164,2.8044506 1.4984974,2.8719576 1.4645572,2.9280654 1.42645,3.0368291 1.400129,3.1119541 1.398037,3.1296461 1.398037,3.2772275 c 0,0.1475816 0.0021,0.1652731 0.028413,0.2403983 0.038107,0.1087642 0.072047,0.1648717 0.1405664,0.2323787 0.060527,0.059632 0.140758,0.1058521 0.2229811,0.1284546 0.067676,0.018603 0.2205696,0.018404 0.3003077,-3.915e-4 z M 4.7480627,3.9263335 5.4366726,3.5368716 V 2.3080814 c 0,-1.225036 -6.18e-5,-1.2288765 -0.02119,-1.2571709 -0.011656,-0.01561 -0.033963,-0.037917 -0.049574,-0.049572 -0.028363,-0.0211757 -0.029437,-0.0211901 -1.527428,-0.0211901 -1.4979912,0 -1.4990655,1.445e-5 -1.5274281,0.0211901 -0.01561,0.011654 -0.037918,0.033956 -0.049573,0.049561 -0.020475,0.027412 -0.021288,0.042559 -0.02409,0.4486041 l -0.0029,0.4202345 0.4448429,0.00298 c 0.4332691,0.0029 0.4459124,0.00356 0.4859539,0.025166 0.048105,0.025957 0.087636,0.066219 0.1144515,0.1165661 0.0182,0.03417 0.019416,0.084997 0.024298,1.0146725 l 0.00514,0.9787003 0.2862266,0.1787652 0.2862269,0.1787651 0.088911,-0.04978 C 4.0194421,4.3381959 4.3693268,4.1405376 4.7480627,3.9263335 Z M 5.6883985,3.3582463 c 7.2e-5,-0.032024 -0.00561,-0.040946 -0.041032,-0.064382 l -0.041111,-0.027206 v 0.087813 0.087813 l 0.041032,-0.02343 c 0.035939,-0.020523 0.041042,-0.028046 0.041111,-0.060608 z"
       id="path857" />
  </g>
</svg>
